<?xml version="1.0" encoding="UTF-8" standalone="no"?>
<!-- Created with Inkscape (http://www.inkscape.org/) -->

<svg
   xmlns:dc="http://purl.org/dc/elements/1.1/"
   xmlns:cc="http://creativecommons.org/ns#"
   xmlns:rdf="http://www.w3.org/1999/02/22-rdf-syntax-ns#"
   xmlns:svg="http://www.w3.org/2000/svg"
   xmlns="http://www.w3.org/2000/svg"
   xmlns:sodipodi="http://sodipodi.sourceforge.net/DTD/sodipodi-0.dtd"
   xmlns:inkscape="http://www.inkscape.org/namespaces/inkscape"
   version="1.1"
   id="svg10"
   width="305.60001"
   height="495.35999"
   viewBox="0 0 305.60001 495.35999"
   sodipodi:docname="Logo blanco.svg"
   inkscape:version="0.92.4 (5da689c313, 2019-01-14)">
  <metadata
     id="metadata16">
    <rdf:RDF>
      <cc:Work
         rdf:about="">
        <dc:format>image/svg+xml</dc:format>
        <dc:type
           rdf:resource="http://purl.org/dc/dcmitype/StillImage" />
        <dc:title></dc:title>
      </cc:Work>
    </rdf:RDF>
  </metadata>
  <defs
     id="defs14" />
  <sodipodi:namedview
     pagecolor="#ffffff"
     bordercolor="#666666"
     borderopacity="1"
     objecttolerance="10"
     gridtolerance="10"
     guidetolerance="10"
     inkscape:pageopacity="0"
     inkscape:pageshadow="2"
     inkscape:window-width="1360"
     inkscape:window-height="706"
     id="namedview12"
     showgrid="false"
     inkscape:zoom="1.0840601"
     inkscape:cx="152.8"
     inkscape:cy="247.67999"
     inkscape:window-x="-8"
     inkscape:window-y="-8"
     inkscape:window-maximized="1"
     inkscape:current-layer="svg10" />
  <path
     style="fill:#000000;stroke-width:0.08083028"
     d="m 173.85408,248.31807 c -1.00808,-1.96573 -2.35766,-5.01135 -3.0076,-6.78735 -0.32914,-0.8994 -0.60982,-1.64171 -0.62374,-1.64959 -0.0139,-0.008 -0.71438,0.0727 -1.55661,0.17916 -2.77239,0.35031 -4.36312,0.44405 -7.53591,0.4441 -2.93313,4e-5 -4.03339,-0.0532 -6.49661,-0.31411 -12.51307,-1.32559 -23.86113,-6.75806 -30.86939,-14.77759 -3.78958,-4.33642 -6.10759,-9.17286 -6.95108,-14.50319 -0.2308,-1.45849 -0.28096,-4.90175 -0.0947,-6.50023 0.16954,-1.45506 0.49465,-3.09558 0.85537,-4.31634 2.91995,-9.88155 11.62518,-18.19962 23.76777,-22.7107 1.27521,-0.47375 1.60536,-0.62452 1.56021,-0.71249 -0.1038,-0.20227 -1.93539,-2.6876 -2.43057,-3.29811 -2.42341,-2.98784 -5.19565,-5.85757 -8.59915,-8.90154 -0.82259,-0.7357 -1.64285,-1.47776 -1.82279,-1.64901 l -0.32717,-0.31137 0.32717,0.17277 c 0.60142,0.3176 4.14252,2.45554 5.6021,3.38226 3.47068,2.20365 6.9475,4.60653 10.42713,7.20636 l 2.61934,1.95705 1.5891,-0.29977 c 3.56996,-0.67347 6.35584,-0.92875 10.51612,-0.96363 l 3.03799,-0.0255 1.35867,-1.87178 c 4.30594,-5.9321 9.14946,-11.53264 15.03808,-17.38844 1.46899,-1.46081 3.1877,-3.21709 3.81935,-3.90286 3.10863,-3.37496 6.5656,-6.47004 9.43918,-8.45107 1.15713,-0.79771 1.3322,-0.89659 1.3322,-0.75238 0,0.0379 -1.16448,1.19377 -2.58774,2.56863 -1.42325,1.37487 -2.84778,2.75138 -3.16562,3.05892 -0.31783,0.30754 -1.75758,1.76098 -3.19944,3.22987 -2.72828,2.77945 -3.07922,3.19846 -5.05141,6.03121 -2.23289,3.20721 -4.67398,7.53394 -6.38831,11.32297 -1.34225,2.96668 -2.87478,7.04439 -2.666,7.09364 0.0605,0.0143 0.67262,0.14048 1.36025,0.28048 7.14464,1.45457 14.05426,4.46891 19.43033,8.47653 10.63465,7.92765 15.20344,19.23087 12.22512,30.24503 -3.2017,11.84023 -14.96023,21.58311 -30.36071,25.15626 -0.75957,0.17623 -1.41935,0.32043 -1.46617,0.32043 -0.0468,0 -0.18771,0.0292 -0.31311,0.0648 l -0.22799,0.0648 0.45505,1.97961 c 1.04808,4.55951 1.20014,5.26092 1.43477,6.61825 0.13533,0.7829 0.23151,1.43435 0.21372,1.44764 -0.0178,0.0133 -0.31802,-0.5329 -0.66719,-1.21378 z m -8.61089,-8.78977 c 1.41661,-0.10256 3.32512,-0.30719 4.23341,-0.45393 0.39295,-0.0635 0.48434,-0.10364 0.44554,-0.19581 -0.48966,-1.16313 -2.63363,-9.11872 -3.23338,-11.99808 -0.21619,-1.03794 -0.40592,-1.89793 -0.42162,-1.91108 -0.0157,-0.0132 -0.54695,0.13374 -1.18058,0.32646 -4.14837,1.26171 -8.13037,1.87869 -9.77224,1.51411 -0.26121,-0.058 -0.73189,-0.23376 -1.04596,-0.39058 -2.08115,-1.03915 -2.80841,-3.68634 -2.1968,-7.99619 0.25091,-1.768 0.88286,-4.37886 1.53107,-6.32549 0.14721,-0.44208 0.33914,-1.07114 0.42652,-1.3979 0.83694,-3.12979 4.19818,-6.18386 9.49364,-8.62605 l 0.70998,-0.32743 0.0569,-1.48179 c 0.24575,-6.39535 1.15533,-12.20052 2.83315,-18.08184 0.47903,-1.67915 1.5914,-5.16386 1.91098,-5.98644 0.15157,-0.39016 0.27559,-0.73834 0.27559,-0.77373 0,-0.0697 -2.25681,-0.35053 -3.31842,-0.41288 l -0.65434,-0.0384 -0.60121,0.96721 c -3.18633,5.12602 -4.20686,6.85983 -5.23878,8.90027 -0.76898,1.52055 -1.52687,3.24004 -1.78871,4.05823 l -0.21112,0.65968 -0.12138,-0.74687 c -0.35156,-2.16319 -2.20368,-4.78024 -6.24824,-8.82873 -1.15206,-1.15319 -3.66459,-3.52969 -3.73171,-3.52969 -0.0419,0 -1.3864,0.36092 -1.43232,0.38451 -0.0131,0.007 0.24408,0.43408 0.57153,0.94966 2.02111,3.18226 3.37898,6.62989 3.94789,10.02375 0.20278,1.20968 0.19628,4.82414 -0.0117,6.46528 -0.51601,4.07315 -1.99841,7.26209 -4.56498,9.82022 -0.80322,0.80058 -2.39435,1.95497 -3.40252,2.4686 -2.0544,1.04665 -3.8731,1.48046 -6.20653,1.48046 -2.06504,0 -3.43029,-0.37584 -4.77249,-1.31383 -1.00288,-0.70087 -1.93407,-1.95472 -2.38391,-3.20995 -0.21248,-0.59292 -0.24434,-0.81755 -0.24061,-1.69686 0.004,-0.85305 0.0416,-1.11935 0.23998,-1.68236 0.41027,-1.16432 1.22185,-2.19534 2.34833,-2.98326 1.80213,-1.26053 4.5117,-2.10766 7.30107,-2.28266 l 0.65434,-0.0411 -1.06921,0.27574 c -4.15841,1.07239 -6.70123,2.77238 -7.49344,5.00968 -0.30397,0.85843 -0.28686,2.03719 0.0415,2.85718 1.02975,2.57181 3.14776,3.74756 6.11135,3.39253 2.21888,-0.26582 3.84941,-0.94866 5.63618,-2.36034 2.64159,-2.08706 4.20629,-4.99722 4.91432,-9.14 0.19677,-1.15137 0.28476,-5.05673 0.14047,-6.23452 -0.3894,-3.17827 -1.58939,-6.51308 -3.56692,-9.91252 l -0.66417,-1.14174 -0.90331,0.31316 c -7.00204,2.4275 -13.4715,6.64269 -17.80256,11.5993 -3.45715,3.95648 -5.68725,8.34047 -6.61037,12.99486 -0.35961,1.81317 -0.41754,2.48979 -0.41289,4.82275 0.005,2.49358 0.13482,3.64959 0.64375,5.73138 0.71788,2.93649 2.11194,6.05834 3.89443,8.72116 4.45424,6.6541 12.08299,12.10461 21.14493,15.10739 5.03051,1.66694 10.20985,2.57673 15.90649,2.7941 1.16232,0.0443 4.44813,-0.0314 5.88902,-0.13564 z m 8.0537,-1.15332 c 11.52142,-2.50956 21.24176,-8.57827 26.6339,-16.62836 4.8855,-7.2937 5.91504,-15.66674 2.88808,-23.4881 -1.61876,-4.18272 -4.18455,-7.88021 -7.83241,-11.2871 -5.14004,-4.80051 -12.11296,-8.46969 -19.83474,-10.43712 -1.14977,-0.29295 -3.40344,-0.78193 -3.60383,-0.78193 -0.18178,0 -0.37532,0.5516 -0.96866,2.76084 -1.49484,5.56591 -2.48666,11.98305 -2.94901,19.08028 -0.0976,1.49867 -0.16091,2.73728 -0.14061,2.75245 0.0203,0.0152 0.74301,-0.21656 1.60605,-0.51495 5.11019,-1.76684 11.95564,-3.48427 16.71238,-4.1929 2.52268,-0.37582 5.73741,-0.70383 8.21224,-0.83793 0.64026,-0.0347 0.81881,-0.0251 0.78875,0.0423 -0.0213,0.0479 -2.79146,0.72752 -6.15576,1.51021 -12.16981,2.83124 -14.9854,3.59394 -19.60091,5.30958 l -1.61246,0.59937 0.001,2.06983 c 0.003,4.59351 0.34451,9.5649 1.02898,14.95781 0.20194,1.59114 0.38471,2.9061 0.40614,2.92212 0.0214,0.0161 1.43536,-0.49311 3.14206,-1.1314 3.36091,-1.25697 6.58552,-2.41214 6.7334,-2.41214 0.27389,0 -0.0131,0.27581 -0.91245,0.87687 -2.09515,1.40025 -4.94014,2.88115 -7.5276,3.91831 -1.10968,0.4448 -1.19122,0.49136 -1.14738,0.6551 0.026,0.0969 0.21861,1.19847 0.42811,2.44784 0.42026,2.50622 1.5446,7.86357 2.14165,10.20465 0.46405,1.81961 0.46337,1.81727 0.5312,1.81727 0.0299,0 0.4942,-0.0958 1.03176,-0.21289 z m 6.62213,-4.53021 c -1.11653,-0.51569 -1.17985,-1.67273 -0.12156,-2.22111 0.32266,-0.16719 0.48046,-0.20001 0.96168,-0.20001 0.47158,0 0.64594,0.0348 0.96428,0.19228 1.04423,0.51672 1.0246,1.72644 -0.0356,2.191 -0.48968,0.21458 -1.3465,0.2329 -1.76884,0.0378 z m 1.26193,-0.84849 c 0.23204,-0.1735 0.23784,-0.35689 0.0177,-0.56015 -0.19198,-0.17727 -0.62168,-0.20917 -0.81058,-0.0602 -0.23174,0.1828 -0.24668,0.38104 -0.0433,0.57439 0.23446,0.22287 0.57452,0.24155 0.83614,0.0459 z m -23.09251,-7.93601 c 1.80671,-0.21909 4.30232,-0.76442 6.71809,-1.46805 l 1.15244,-0.33566 -0.0519,-0.215 c -0.0285,-0.11823 -0.26167,-1.5989 -0.51814,-3.29036 -0.5878,-3.8764 -0.99328,-8.36605 -1.15093,-12.74327 l -0.1166,-3.23758 -0.79454,0.42851 c -3.825,2.06286 -6.21326,4.33997 -6.85493,6.5359 -0.0786,0.26909 -0.31831,1.05541 -0.53261,1.74737 -1.25483,4.05174 -1.75314,6.79327 -1.65103,9.08348 0.0895,2.00801 0.52816,3.01402 1.5137,3.47169 0.3507,0.16286 1.07287,0.17012 2.28637,0.023 z m 0.34765,-40.64093 c 0.8912,-2.71257 2.48956,-5.97965 4.27436,-8.73687 l 0.5203,-0.80379 -0.39593,-0.0472 c -1.45975,-0.17417 -6.21585,0.0525 -9.13598,0.43535 -1.35507,0.17767 -3.9481,0.62096 -4.04864,0.69213 -0.0417,0.0295 0.23168,0.31815 0.6076,0.64135 3.9396,3.38714 6.76108,7.0324 7.38387,9.53974 l 0.11948,0.48102 0.12506,-0.45432 c 0.0688,-0.24988 0.31623,-1.0362 0.54988,-1.74737 z m -12.33222,-8.55756 c 0.26991,-0.0663 0.49075,-0.1367 0.49075,-0.15632 0,-0.0923 -4.82082,-4.21666 -5.05543,-4.32508 -0.0527,-0.0243 0.17603,0.23382 0.50833,0.57374 0.69519,0.71113 2.25016,2.56835 2.90584,3.47064 0.24618,0.33878 0.49534,0.60284 0.55368,0.58681 0.0584,-0.0161 0.32691,-0.0834 0.59683,-0.14979 z m 23.71777,-1.76941 c 0.0834,-0.22105 0.53575,-1.31403 1.00529,-2.42885 1.42324,-3.3792 3.41203,-7.27079 5.15836,-10.09367 0.39031,-0.63091 0.69409,-1.15875 0.67507,-1.17297 -0.10943,-0.0818 -5.02035,5.84218 -6.90634,8.33105 -1.64742,2.17406 -3.87299,5.33089 -3.79216,5.37895 0.0161,0.01 0.57599,0.0716 1.24435,0.13786 0.66835,0.0663 1.38345,0.14595 1.5891,0.17699 0.82624,0.12475 0.85903,0.11423 1.02633,-0.32936 z"
     id="path20"
     inkscape:connector-curvature="0" />
</svg>
