<?xml version="1.0" encoding="UTF-8" standalone="no"?>
<!-- Created with Inkscape (http://www.inkscape.org/) -->

<svg
   xmlns:dc="http://purl.org/dc/elements/1.1/"
   xmlns:cc="http://creativecommons.org/ns#"
   xmlns:rdf="http://www.w3.org/1999/02/22-rdf-syntax-ns#"
   xmlns:svg="http://www.w3.org/2000/svg"
   xmlns="http://www.w3.org/2000/svg"
   xmlns:sodipodi="http://sodipodi.sourceforge.net/DTD/sodipodi-0.dtd"
   xmlns:inkscape="http://www.inkscape.org/namespaces/inkscape"
   version="1.1"
   id="svg10"
   width="305.60001"
   height="495.35999"
   viewBox="0 0 305.60001 495.35999"
   sodipodi:docname="Logo Marco Calderon.svg"
   inkscape:version="0.92.4 (5da689c313, 2019-01-14)">
  <metadata
     id="metadata16">
    <rdf:RDF>
      <cc:Work
         rdf:about="">
        <dc:format>image/svg+xml</dc:format>
        <dc:type
           rdf:resource="http://purl.org/dc/dcmitype/StillImage" />
        <dc:title></dc:title>
      </cc:Work>
    </rdf:RDF>
  </metadata>
  <defs
     id="defs14" />
  <sodipodi:namedview
     pagecolor="#ffffff"
     bordercolor="#666666"
     borderopacity="1"
     objecttolerance="10"
     gridtolerance="10"
     guidetolerance="10"
     inkscape:pageopacity="0"
     inkscape:pageshadow="2"
     inkscape:window-width="1360"
     inkscape:window-height="706"
     id="namedview12"
     showgrid="false"
     inkscape:zoom="1.0840601"
     inkscape:cx="180.47375"
     inkscape:cy="349.15038"
     inkscape:window-x="-8"
     inkscape:window-y="-8"
     inkscape:window-maximized="1"
     inkscape:current-layer="svg10" />
  <path
     style="fill:#000000;stroke-width:0.31970143"
     d="m 196.35779,489.35815 c -3.45098,-8.98294 -8.07101,-22.90071 -10.29596,-31.01658 -1.12677,-4.11003 -2.08762,-7.50222 -2.13523,-7.53823 -0.0477,-0.036 -2.44558,0.33242 -5.32882,0.81872 -9.49077,1.6008 -14.93635,2.02917 -25.79778,2.02938 -10.04105,2.3e-4 -13.80757,-0.243 -22.24,-1.43535 C 87.723787,446.15845 48.875787,421.33337 24.884287,384.68596 11.911336,364.8696 3.9760457,342.76818 1.0885338,318.40981 0.29842513,311.74488 0.12668343,296.01005 0.76429421,288.70535 1.3446819,282.05608 2.4576263,274.5593 3.6924965,268.98071 13.688421,223.82434 43.489173,185.81273 85.057131,165.19818 c 4.36546,-2.16498 5.495662,-2.85393 5.341106,-3.25594 -0.355368,-0.92429 -6.625478,-12.28169 -8.320624,-15.07156 -8.296106,-13.65376 -17.786366,-26.76771 -29.43762,-40.67795 -2.816008,-3.36198 -5.624002,-6.753009 -6.239998,-7.535566 l -1.119988,-1.422909 1.119988,0.789532 c 2.058868,1.451369 14.18117,11.221203 19.177752,15.456153 11.88126,10.0701 23.783506,21.05071 35.695413,32.93131 l 8.96683,8.94331 5.44001,-1.36993 c 12.22109,-3.0776 21.75804,-4.24418 35.99999,-4.40355 l 10.40002,-0.11634 4.65116,-8.55359 c 14.74059,-27.10829 31.32155,-52.701415 51.48015,-79.461057 5.0288,-6.675539 10.91249,-14.701337 13.07484,-17.835132 10.64184,-15.422751 22.47613,-29.566552 32.31331,-38.6193813 3.9612,-3.6453573 4.56054,-4.09721529 4.56054,-3.4382243 0,0.1732623 -3.98639,5.4552601 -8.85865,11.7380816 -4.87223,6.282791 -9.74886,12.573151 -10.83692,13.978514 -1.08806,1.405364 -6.01677,8.047252 -10.95268,14.759757 -9.3398,12.70144 -10.5412,14.616207 -17.2926,27.561152 -7.64389,14.656238 -16.00056,34.42834 -21.86922,51.74331 -4.59498,13.55703 -9.84129,32.1912 -9.12658,32.41625 0.2072,0.065 2.30259,0.64201 4.65656,1.28173 24.45839,6.64705 48.11222,20.42187 66.51623,38.73572 36.40576,36.22749 52.04621,87.88057 41.85046,138.21262 -10.96044,54.10709 -51.21364,98.62973 -103.93436,114.95818 -2.60026,0.80532 -4.85889,1.46424 -5.01919,1.46424 -0.16024,0 -0.64259,0.13318 -1.07186,0.29618 l -0.78048,0.29616 1.55776,9.04637 c 3.58793,20.83588 4.10847,24.04114 4.91167,30.24384 0.4633,3.57767 0.79255,6.55462 0.73167,6.61539 -0.061,0.0607 -1.08868,-2.43524 -2.28403,-5.5467 z m -29.47778,-40.16717 c 4.84948,-0.46866 11.38291,-1.4038 14.49231,-2.07434 1.34516,-0.29023 1.65802,-0.47365 1.52521,-0.8948 -1.67629,-5.31527 -9.01575,-41.67042 -11.06888,-54.82841 -0.74011,-4.74314 -1.3896,-8.67305 -1.44336,-8.7332 -0.0538,-0.0601 -1.87241,0.6112 -4.04148,1.49186 -14.20124,5.76574 -27.83286,8.58516 -33.4535,6.91914 -0.8942,-0.2652 -2.50549,-1.06824 -3.58065,-1.78491 -7.12444,-4.7486 -9.6141,-16.84566 -7.52033,-36.54068 0.85893,-8.07933 3.02227,-20.01029 5.24131,-28.90595 0.50394,-2.02024 1.16101,-4.89485 1.46013,-6.38807 2.8651,-14.30242 14.37167,-28.2588 32.49972,-39.41899 l 2.43051,-1.4963 0.19486,-6.77147 c 0.84126,-29.22518 3.95505,-55.75342 9.69875,-82.62968 1.63986,-7.67333 5.4479,-23.59761 6.54189,-27.35665 0.51888,-1.78294 0.94343,-3.37402 0.94343,-3.53574 0,-0.31869 -7.72579,-1.60186 -11.35998,-1.88677 l -2.24001,-0.17577 -2.05816,4.41991 c -10.90781,23.42474 -14.40142,31.34784 -17.934,40.67216 -2.63248,6.94854 -5.22698,14.8062 -6.12332,18.54511 l -0.72272,3.01461 -0.41555,-3.41302 c -1.20349,-9.88527 -7.5439,-21.84457 -21.38969,-40.34523 -3.94389,-5.26976 -12.54506,-16.12984 -12.77488,-16.12984 -0.14354,0 -4.74605,1.64938 -4.90326,1.75715 -0.045,0.0313 0.83556,1.98363 1.95654,4.33969 6.91891,14.54218 11.56731,30.29703 13.51488,45.80616 0.69418,5.52801 0.67193,22.04519 -0.0397,29.54478 -1.76648,18.61339 -6.8412,33.18609 -15.62743,44.87613 -2.74966,3.65846 -8.196572,8.93377 -11.647866,11.28091 -7.03289,4.78292 -13.258872,6.76539 -21.24693,6.76539 -7.069296,0 -11.74297,-1.71755 -16.337758,-6.00395 -3.433212,-3.20281 -6.620951,-8.93256 -8.160866,-14.66867 -0.727414,-2.70953 -0.836438,-3.73599 -0.823706,-7.75428 0.01217,-3.89824 0.142332,-5.11518 0.821528,-7.68796 1.404506,-5.32069 4.1828,-10.0322 8.039062,-13.63284 6.169291,-5.76028 15.445014,-9.63151 24.993926,-10.43118 l 2.24,-0.18765 -3.66024,1.26008 c -14.23556,4.9006 -22.940457,12.66909 -25.652451,22.89307 -1.040569,3.92283 -0.98199,9.30944 0.141847,13.0566 3.525147,11.75259 10.775794,17.1255 20.921094,15.50308 7.595922,-1.21473 13.177734,-4.33514 19.294425,-10.78622 9.042982,-9.53734 14.399485,-22.83606 16.823285,-41.7676 0.67363,-5.26151 0.97485,-23.10806 0.48085,-28.49026 -1.333,-14.52398 -5.44098,-29.76327 -12.21068,-45.2979 l -2.273696,-5.2175 -3.09227,1.43107 c -23.97023,11.09311 -46.117262,30.35552 -60.943836,53.00606 -11.834924,18.08017 -19.4692607,38.11398 -22.6293807,59.38346 -1.2310698,8.28575 -1.4293898,11.37774 -1.413438,22.03881 0.016944,11.39506 0.461512,16.67777 2.2037402,26.19106 2.4575162,13.41904 7.2298295,27.68516 13.3318525,39.85364 15.248288,30.40764 41.363921,55.31518 72.3858,69.03721 17.221058,7.61747 34.951578,11.77502 54.452988,12.76836 3.97901,0.20267 15.22738,-0.1433 20.16001,-0.61986 z m 27.57037,-5.2704 c 39.44146,-11.46805 72.71728,-39.20065 91.17631,-75.98767 16.72459,-33.33048 20.24904,-71.59327 9.88681,-107.33505 -5.54154,-19.11402 -14.32504,-36.01069 -26.81285,-51.5794 -17.59598,-21.93718 -41.4665,-38.70443 -67.90064,-47.69515 -3.93603,-1.3387 -11.65101,-3.57323 -12.33701,-3.57323 -0.62234,0 -1.28486,2.52065 -3.31604,12.61643 -5.11731,25.43488 -8.51262,54.75964 -10.0954,87.19231 -0.33421,6.84861 -0.55084,12.50873 -0.48139,12.57806 0.0695,0.0694 2.54359,-0.98963 5.49806,-2.3532 17.49381,-8.07402 40.92795,-15.92227 57.21177,-19.16057 8.63597,-1.71742 19.64099,-3.21636 28.11315,-3.82915 2.1918,-0.15855 2.803,-0.1147 2.70012,0.19327 -0.0732,0.21893 -9.55604,3.32462 -21.07312,6.90131 -41.66115,12.93814 -51.2998,16.42346 -67.10013,24.26352 l -5.52002,2.73897 0.004,9.45865 c 0.01,20.99123 1.17936,43.7093 3.5225,68.35361 0.6913,7.27117 1.31698,13.28021 1.39035,13.35345 0.0733,0.0733 4.91367,-2.25338 10.75626,-5.17028 11.50546,-5.74406 22.54432,-11.0229 23.05057,-11.0229 0.93759,0 -0.045,1.26041 -3.12359,4.00709 -7.17237,6.39885 -16.91169,13.16618 -25.7694,17.90575 -3.79877,2.03267 -4.07789,2.2454 -3.92781,2.99366 0.0889,0.443 0.74835,5.47673 1.46556,11.18608 1.43866,11.45282 5.28766,35.93462 7.33151,46.63285 1.5886,8.31519 1.58627,8.30446 1.81848,8.30446 0.10233,0 1.69181,-0.43775 3.53202,-0.97287 z m 22.66961,-20.70199 c -3.82219,-2.35656 -4.03896,-7.64396 -0.4161,-10.14995 1.10458,-0.76401 1.64478,-0.91402 3.29212,-0.91402 1.61437,0 2.21127,0.15888 3.30105,0.87874 3.57474,2.36125 3.50754,7.88937 -0.12171,10.01231 -1.67634,0.98058 -4.60951,1.06434 -6.05533,0.17295 z m 4.32,-3.87739 c 0.79437,-0.79287 0.81424,-1.63088 0.0607,-2.55974 -0.65721,-0.81013 -2.12821,-0.95586 -2.77488,-0.27491 -0.79332,0.83531 -0.84446,1.74125 -0.14814,2.62483 0.80262,1.01843 1.96678,1.10382 2.86239,0.20985 z m -79.05301,-36.26567 c 6.18495,-1.00117 14.7282,-3.49328 22.99819,-6.70867 l 3.94515,-1.5339 -0.17744,-0.98246 c -0.0975,-0.54031 -0.89579,-7.30663 -1.77379,-15.03616 -2.0122,-17.71424 -3.40029,-38.23089 -3.93996,-58.23378 l -0.39913,-14.79494 -2.72001,1.95821 c -13.0942,9.42678 -21.26995,19.83262 -23.4666,29.86749 -0.26919,1.22971 -1.08966,4.823 -1.82329,7.98507 -4.2957,18.51549 -6.00155,31.04362 -5.65199,41.50936 0.30647,9.17612 1.80805,13.77332 5.18186,15.86481 1.20057,0.74425 3.67278,0.7774 7.82699,0.10506 z m 1.19014,-185.71948 c 3.05086,-12.39576 8.52255,-27.32556 14.63246,-39.92538 l 1.78118,-3.67313 -1.35539,-0.21579 c -4.99721,-0.79592 -21.27883,0.23987 -31.27536,1.98945 -4.63884,0.81192 -13.51563,2.83765 -13.85981,3.16285 -0.14282,0.1351 0.79313,1.4539 2.08,2.93086 13.4865,15.47838 23.14533,32.13639 25.27738,43.59435 l 0.409,2.19808 0.42811,-2.07612 c 0.23553,-1.14187 1.08256,-4.73516 1.88243,-7.98507 z m -42.21711,-39.10601 c 0.92399,-0.30305 1.67999,-0.62468 1.67999,-0.71435 0,-0.42177 -16.503203,-19.26911 -17.306359,-19.76456 -0.180334,-0.11135 0.602634,1.0685 1.74017,2.62185 2.379864,3.2497 7.703034,11.73674 9.94761,15.85998 0.842756,1.54816 1.695704,2.75487 1.895452,2.68159 0.1997,-0.0732 1.119117,-0.3813 2.043137,-0.68451 z m 81.19347,-8.08578 c 0.28541,-1.01012 1.83404,-6.00479 3.44142,-11.09927 4.87221,-15.44217 11.68049,-33.22576 17.65873,-46.125638 1.33613,-2.883129 2.37607,-5.295227 2.31098,-5.360215 -0.37462,-0.373922 -17.18628,26.697373 -23.6426,38.070913 -5.63967,9.93494 -13.25849,24.36093 -12.98177,24.58054 0.0549,0.0435 1.97178,0.32704 4.25978,0.62997 2.288,0.30305 4.73597,0.66693 5.43999,0.80883 2.82849,0.57004 2.94074,0.52197 3.51347,-1.50513 z"
     id="path20"
     inkscape:connector-curvature="0" />
  <path
     style="fill:#d4aa00;stroke-width:2.53808093"
     d="M 138.22975,447.66636 C 103.52831,444.67816 63.493247,423.05046 39.917527,394.55621 23.231305,374.3888 15.633212,359.25281 9.5787349,334.11896 -4.5980365,275.26714 21.224276,212.10514 73.203491,178.49129 l 17.690342,-11.43996 3.74242,7.98361 c 16.333327,34.84325 14.814807,82.82274 -3.364686,106.31111 -15.411174,19.91162 -36.417062,19.87671 -40.29126,-0.067 -2.837744,-14.60837 3.271928,-24.0272 20.840802,-32.12872 l 8.353136,-3.85183 -7.345898,-0.12675 c -8.936476,-0.15421 -23.471174,9.00264 -28.23303,17.78648 -5.779576,10.66113 -4.377078,21.91621 4.09498,32.86231 6.68684,8.63957 8.975738,9.80891 19.200434,9.80891 6.384724,0 15.052488,-2.11149 19.261698,-4.69219 10.811666,-6.62869 24.305891,-27.5618 27.616961,-42.84123 4.4093,-20.34746 1.91889,-57.10803 -5.26292,-77.6849 -3.26953,-9.36761 -5.56964,-17.51648 -5.11137,-18.10856 1.81928,-2.35055 29.05379,38.26572 32.68503,48.7449 l 3.87362,11.17854 2.89208,-9.50646 c 1.59065,-5.22856 7.509,-20.20834 13.15188,-33.28841 7.7237,-17.90337 11.40966,-23.78666 14.91166,-23.80099 2.55853,-0.009 5.16724,0.64683 5.7971,1.46063 0.62986,0.8138 -1.13919,11.6698 -3.93122,24.12449 -4.55112,20.30155 -7.27491,40.36855 -11.04732,81.38924 -1.07305,11.66837 -2.22974,13.96748 -9.78833,19.45623 -14.66953,10.65238 -22.30679,23.18718 -27.44537,45.04513 -6.20618,26.39932 -6.55855,50.88419 -0.8496,59.03468 4.98704,7.11989 16.65555,7.88982 33.59309,2.21657 l 11.07633,-3.71 5.95456,30.45159 c 3.27501,16.74839 5.82668,30.63462 5.67043,30.8583 -0.7211,1.0321 -34.75534,2.39412 -42.70929,1.70917 z"
     id="path22"
     inkscape:connector-curvature="0" />
  <path
     style="fill:#d4aa00;stroke-width:2.53808093"
     d="m 187.68829,421.39837 c -7.33042,-45.52984 -8.13248,-40.81219 8.89962,-52.34649 20.42507,-13.83202 20.46293,-18.61696 0.0695,-8.7873 l -16.62783,8.01466 -1.30982,-13.29376 c -0.72041,-7.31157 -1.97568,-27.08887 -2.78949,-43.94957 l -1.47962,-30.65578 12.03371,-5.80307 c 6.61853,-3.19169 27.85944,-10.79334 47.20197,-16.89257 19.34251,-6.09925 35.16821,-11.92787 35.16821,-12.95245 0,-4.81023 -51.00576,6.14549 -75.61028,16.24058 -9.27502,3.80552 -17.11838,6.58998 -17.42972,6.18774 -2.35061,-3.03706 8.64221,-96.37176 12.33183,-104.70364 2.16378,-4.88619 22.65411,2.60436 43.86526,16.03563 50.55432,32.01181 76.98688,93.87127 64.98883,152.09168 -4.88116,23.68596 -14.44632,43.21762 -31.1128,63.53122 -16.32836,19.90154 -41.61211,38.02799 -63.40295,45.45497 l -11.25325,3.83545 z m 38.74114,-2.94638 c 0,-7.07891 -5.20121,-9.57192 -10.17216,-4.87561 -4.96199,4.68783 -2.3816,10.33691 4.72167,10.33691 3.85922,0 5.45049,-1.59445 5.45049,-5.4613 z"
     id="path24"
     inkscape:connector-curvature="0" />
  <path
     style="fill:#d4aa00;stroke-width:2.53808093"
     d="m 133.72464,378.7334 c -1.82053,-2.35217 -3.31007,-8.86496 -3.31007,-14.47285 0,-12.73562 6.01587,-43.2665 10.41585,-52.86101 4.22656,-9.21635 20.84409,-24.88847 20.84668,-19.66063 0.004,7.95342 4.56635,67.61438 5.72557,74.8707 1.27343,7.97135 0.68069,8.3162 -26.42109,15.37283 -2.17077,0.5652 -5.43638,-0.89687 -7.25694,-3.24904 z"
     id="path26"
     inkscape:connector-curvature="0" />
  <path
     style="fill:#d4aa00;stroke-width:2.53808093"
     d="m 138.0902,193.97419 c -1.29972,-3.63029 -6.52389,-12.67336 -11.60928,-20.09571 -5.0854,-7.42235 -8.46165,-14.12159 -7.50283,-14.88723 3.44089,-2.74761 39.11858,-5.58602 38.16442,-3.03625 -0.52873,1.41293 -4.50009,12.03041 -8.82527,23.59436 -7.30049,19.51893 -8.03325,20.55243 -10.22704,14.42483 z"
     id="path88"
     inkscape:connector-curvature="0" />
  <path
     style="fill:#d4aa00;stroke-width:0.63452023"
     d="m 140.36583,202.5508 c -0.48773,-1.83198 -1.06381,-3.84502 -1.28018,-4.47336 -0.29679,-0.86197 -0.0842,-1.12761 0.86546,-1.08189 0.91775,0.0442 1.75624,-0.91428 3.09443,-3.53733 1.00955,-1.97889 1.83047,-3.2771 1.82428,-2.88495 -0.007,0.39213 -0.8226,3.99695 -1.81422,8.01069 l -1.80298,7.29773 z"
     id="path90"
     inkscape:connector-curvature="0" />
  <path
     style="fill:#d4aa00;stroke-width:0.65227634"
     d=""
     id="path94"
     inkscape:connector-curvature="0" />
  <path
     style="fill:#d4aa00;stroke-width:0.31726012"
     d="m 218.77787,418.97003 c -0.65052,-0.84048 -0.67627,-0.98537 -0.30439,-1.71295 0.6247,-1.22231 2.137,-1.25275 3.00287,-0.0604 l 0.68907,0.94888 -0.78313,0.87128 c -1.00194,1.11477 -1.71531,1.10193 -2.60442,-0.0469 z"
     id="path96"
     inkscape:connector-curvature="0" />
</svg>
